<svg width="16" height="16" viewBox="0 0 16 16" fill="none" xmlns="http://www.w3.org/2000/svg">
<rect width="16" height="16" rx="8" fill="#F050F8"/>
<g clip-path="url(#clip0_817_1795)">
<path d="M5.67891 4.88928C5.6788 5.12502 5.59025 5.35105 5.43274 5.51766C5.27523 5.68426 5.06167 5.7778 4.83903 5.77768C4.6164 5.77756 4.40292 5.6838 4.24557 5.51703C4.08822 5.35026 3.99989 5.12413 4 4.8884C4.00011 4.65266 4.08866 4.42663 4.24617 4.26002C4.40367 4.09341 4.61724 3.99988 4.83987 4C5.06251 4.00012 5.27599 4.09388 5.43334 4.26065C5.59068 4.42742 5.67902 4.65355 5.67891 4.88928ZM5.70409 6.43586H4.02518V12H5.70409V6.43586ZM8.35677 6.43586H6.68625V12H8.33998V9.08016C8.33998 7.45359 10.3421 7.30248 10.3421 9.08016V12H12V8.47575C12 5.73368 9.03673 5.8359 8.33998 7.18249L8.35677 6.43586Z" fill="white"/>
</g>
<defs>
<clipPath id="clip0_817_1795">
<rect width="8" height="8" fill="white" transform="translate(4 4)"/>
</clipPath>
</defs>
</svg>
