<svg width="16" height="16" viewBox="0 0 16 16" fill="none" xmlns="http://www.w3.org/2000/svg">
<rect width="16" height="16" rx="8" fill="#F050F8"/>
<path d="M8.0025 12.6004L5.1725 9.78779C4.61283 9.23192 4.23161 8.52358 4.07705 7.75235C3.9225 6.98112 4.00156 6.18166 4.30423 5.4551C4.60691 4.72853 5.1196 4.1075 5.77745 3.67056C6.4353 3.23362 7.20876 3.0004 8 3.0004C8.79124 3.00041 9.5647 3.23362 10.2226 3.67056C10.8804 4.1075 11.3931 4.72853 11.6958 5.4551C11.9984 6.18166 12.0775 6.98112 11.9229 7.75235C11.7684 8.52358 11.3872 9.23192 10.8275 9.78779L8.0025 12.6004Z" fill="white" stroke="#F050F8" stroke-width="0.5" stroke-linecap="round" stroke-linejoin="round"/>
<circle cx="7.99954" cy="6.73367" r="1.88333" fill="white" stroke="#F050F8" stroke-width="0.5"/>
</svg>
