<svg width="16" height="16" viewBox="0 0 16 16" fill="none" xmlns="http://www.w3.org/2000/svg">
<rect width="16" height="16" rx="8" fill="#F050F8"/>
<path d="M11.9998 9.98954V11.1939C12.0002 11.3057 11.9773 11.4163 11.9324 11.5188C11.8875 11.6212 11.8217 11.7132 11.7391 11.7887C11.6566 11.8643 11.5591 11.9219 11.453 11.9577C11.3469 11.9935 11.2344 12.0068 11.1229 11.9967C9.88512 11.8625 8.69617 11.4404 7.65156 10.7643C6.67969 10.148 5.85571 9.32562 5.23813 8.35567C4.55834 7.3084 4.1353 6.11603 4.00326 4.87518C3.99321 4.76417 4.00643 4.65228 4.04208 4.54665C4.07773 4.44102 4.13503 4.34395 4.21032 4.26163C4.28562 4.1793 4.37727 4.11353 4.47943 4.06849C4.58159 4.02346 4.69203 4.00014 4.80372 4.00004H6.01043C6.20564 3.99812 6.39489 4.06711 6.5429 4.19415C6.69091 4.32119 6.78759 4.4976 6.81491 4.69052C6.86584 5.07593 6.9603 5.45435 7.09647 5.81857C7.15059 5.96225 7.1623 6.11841 7.13022 6.26853C7.09814 6.41866 7.02361 6.55646 6.91547 6.66561L6.40462 7.17544C6.97723 8.18046 7.81103 9.01261 8.81805 9.58408L9.32889 9.07425C9.43826 8.96632 9.57633 8.89194 9.72675 8.85992C9.87718 8.8279 10.0336 8.83959 10.1776 8.8936C10.5426 9.02951 10.9217 9.12378 11.3079 9.17461C11.5033 9.20212 11.6817 9.30035 11.8093 9.4506C11.9369 9.60085 12.0046 9.79266 11.9998 9.98954Z" fill="white" stroke="#F050F8" stroke-width="0.5" stroke-linecap="round" stroke-linejoin="round"/>
</svg>
