<svg width="234" height="74" viewBox="0 0 234 74" fill="none" xmlns="http://www.w3.org/2000/svg">
<rect x="0.25" y="28.25" width="233.5" height="45.5" rx="22.75" fill="#F8F8FF"/>
<rect x="0.25" y="28.25" width="233.5" height="45.5" rx="22.75" stroke="url(#paint0_linear_817_1788)" stroke-width="0.5"/>
<path d="M24.644 38.304C24.788 38.16 25.148 38.304 25.436 38.628C25.652 38.88 25.76 39.168 25.724 39.348C29.396 36.288 35.516 30.24 41.852 23.796C32.636 24.228 23.492 24.156 21.332 22.248C20.432 21.456 20.216 20.556 20.612 19.62C20.972 18.684 21.944 17.64 23.312 16.524C24.716 15.408 26.516 14.256 28.568 13.212C36.524 9.072 48.368 5.976 54.992 10.332C60.572 4.572 64.748 0.287998 65.216 0.251999C66.692 0.107999 67.268 1.08 66.368 4.392C65.684 6.804 64.208 10.836 61.508 17.388C61.004 18.648 60.464 19.872 59.924 21.024C61.472 20.88 62.372 20.772 62.372 20.772C62.624 20.736 62.984 20.988 63.2 21.348C63.452 21.672 63.416 21.996 63.2 22.032C63.164 22.032 61.832 22.176 59.636 22.392C59.348 24.192 58.808 25.992 58.124 27.72C56.684 31.428 54.632 34.812 53.012 37.08C51.824 38.736 50.852 39.78 50.492 39.852C49.916 39.996 49.52 39.672 49.304 38.916C49.16 38.34 50.132 36.576 51.68 33.804C53.264 30.996 55.424 27.144 57.584 22.608C54.02 22.932 49.16 23.364 44.156 23.652C34.868 33.12 25.688 42.12 23.6 42.66C22.916 42.84 22.412 42.516 22.196 41.652C21.944 40.68 24.608 38.304 24.644 38.304ZM43.112 22.5C46.496 19.08 49.88 15.588 52.94 12.42L54.38 10.944C48.116 7.416 37.1 10.476 29.54 14.4C27.488 15.444 25.724 16.596 24.356 17.676C23.024 18.756 22.088 19.764 21.728 20.628C21.548 21.096 21.512 21.384 21.62 21.492C23.636 23.256 33.572 23.076 43.112 22.5ZM53.984 13.572C51.32 16.308 48.404 19.332 45.452 22.32C50.42 21.996 55.064 21.528 58.232 21.204L58.592 20.448C58.736 18.9 58.7 17.388 58.34 15.984C57.908 14.364 57.08 12.96 55.676 11.808L53.984 13.572ZM66.008 1.512C65.72 1.548 61.688 5.652 56.216 11.268C57.944 12.744 58.952 14.544 59.456 16.488C59.6 16.92 59.672 17.388 59.744 17.856C59.96 17.388 60.176 16.884 60.356 16.38C63.056 9.864 64.532 5.832 65.18 3.456C65.612 2.016 66.224 1.476 66.008 1.512ZM56 29.016C55.1 30.744 54.236 32.292 53.48 33.66C54.344 32.292 55.208 30.708 56 29.016ZM65.6573 22.86C65.7653 22.68 66.1253 22.752 66.4133 23.04C66.7373 23.328 66.8813 23.724 66.7733 23.904L65.8733 25.524C67.8173 23.904 69.9413 22.32 70.7333 22.536H70.8053C71.8853 22.86 72.0653 23.544 71.8133 24.444C71.7053 24.84 71.4533 25.308 71.2013 25.848C70.7333 26.784 70.1933 27.828 70.1933 27.828C71.3453 28.584 75.2333 25.164 75.2693 25.164C75.3773 25.02 75.7733 24.552 76.0613 24.876C76.3853 25.164 76.1693 25.236 76.0253 25.416C76.0253 25.416 72.1013 30.06 70.2293 28.836C68.6093 27.792 69.4013 26.208 70.0853 24.804C70.2293 24.516 70.3733 24.228 70.4813 23.94C68.4293 25.02 63.6413 29.592 63.4973 29.736C63.3893 29.88 63.0653 29.772 62.7773 29.52C62.4893 29.196 62.3093 28.836 62.4173 28.656L65.6573 22.86ZM80.6631 26.388C80.6271 26.568 80.4111 26.604 80.1591 26.46L80.1231 26.532C78.8271 27.648 77.6751 28.548 76.7751 29.124C75.5511 29.88 73.4991 30.06 73.6071 28.008C73.6431 27.468 73.8951 26.784 74.2911 26.1C75.0111 24.912 76.5591 22.932 78.0711 23.004C79.4751 22.968 79.9071 23.688 80.2671 24.228C81.5991 22.968 82.9671 21.492 84.2631 19.944C87.2151 16.416 89.2311 13.5 90.2031 11.988L90.9591 10.836C91.0671 10.656 91.3911 10.728 91.7151 11.052C92.0031 11.34 92.1831 11.7 92.0751 11.916C92.0751 11.916 91.7871 12.384 91.2111 13.248C87.6831 18.792 74.3271 39.852 74.8311 41.04C74.9751 41.4 74.8311 41.58 74.5431 41.508C74.2551 41.436 73.8951 41.112 73.7871 40.752C73.3551 39.744 78.1431 31.536 82.7511 23.94C82.0671 24.66 81.3831 25.344 80.6991 25.956C80.6991 26.208 80.6631 26.352 80.6631 26.388ZM79.4751 24.984C79.4031 24.732 79.2231 24.444 78.7551 24.444C77.4591 24.372 76.0191 26.136 75.4071 27.144C75.1191 27.648 74.9031 28.116 74.8311 28.476C75.0471 28.368 75.3711 28.188 75.7671 27.936C76.6671 27.396 77.8191 26.496 79.0791 25.38L79.4751 24.984ZM88.7108 21.06C88.8188 20.88 89.1788 20.988 89.4668 21.276C89.7908 21.564 89.9348 21.96 89.8268 22.14L88.4948 24.264C89.7548 23.652 91.4828 23.076 92.2028 23.976C92.5268 24.336 92.4188 25.164 92.8868 25.2C93.5708 25.236 94.5788 25.092 95.5508 24.804C95.7668 24.732 95.9828 24.552 96.1988 24.876C96.4508 25.236 96.3068 25.344 96.0908 25.38C95.0468 25.704 93.3188 26.064 92.5628 25.992C91.6268 25.92 91.3388 25.668 90.5468 24.732C90.0068 24.084 86.8028 26.928 86.8028 26.928C86.7308 26.964 84.8588 30.132 84.6788 30.456C84.5708 30.636 84.2108 30.528 83.9228 30.24C83.5988 29.952 83.4548 29.556 83.5628 29.376L88.7108 21.06ZM96.9883 24.66C97.4923 24.516 98.0322 24.3 98.6083 24.048C99.3643 23.652 100.012 22.896 100.408 22.212C100.48 22.068 100.516 21.96 100.588 21.816C100.192 21.996 99.7243 22.284 99.1843 22.68C98.4643 23.22 97.6363 23.904 96.9883 24.66ZM99.5443 25.236C97.8523 26.1 95.9443 26.316 95.8363 26.316C93.3882 31.572 103.108 27.108 104.224 25.092C104.332 24.876 104.692 24.624 105.016 24.912C105.304 25.2 105.304 25.344 105.196 25.56C104.188 27.324 98.5723 31.212 96.0883 29.808C94.8642 29.124 94.1082 27.684 94.3962 26.28C94.5762 25.38 95.1162 24.444 95.8363 23.616C96.5563 22.824 97.3843 22.068 98.1763 21.492C99.2203 20.772 100.192 20.34 100.588 20.412C100.912 20.484 101.2 20.664 101.452 20.952C101.812 21.348 101.956 21.816 101.884 22.248C101.848 22.572 101.704 22.896 101.524 23.256C101.128 24.012 100.408 24.804 99.5443 25.236ZM104.196 25.2C104.016 24.984 103.98 24.732 104.088 24.624C104.7 23.868 105.708 22.536 106.392 21.924C106.5 21.78 106.86 21.888 107.148 22.212C107.436 22.5 107.58 22.896 107.472 23.04C107.436 23.04 103.044 28.512 103.908 29.052C105.204 29.916 108.372 24.48 108.732 23.904L108.768 23.832C108.876 23.652 109.2 23.724 109.524 24.012C109.812 24.3 109.992 24.696 109.884 24.876C109.884 24.876 108.012 28.26 108.696 28.728C109.2 29.052 109.884 28.692 110.892 27.612C111.792 26.676 112.836 25.164 114.132 23.112C114.564 22.284 115.032 21.672 115.032 21.672C115.176 21.528 115.5 21.6 115.788 21.888C116.112 22.176 116.256 22.572 116.148 22.752V22.788C115.5 23.796 114.924 24.696 114.384 25.524C114.312 25.776 114.276 25.956 114.384 26.028C115.32 26.604 117.66 25.2 118.308 24.552C118.452 24.408 118.632 24.336 118.92 24.624C119.208 24.948 119.136 25.092 118.992 25.236C117.84 26.496 116.436 28.26 114.456 27.072C114.168 26.856 113.952 26.64 113.772 26.424C113.124 27.36 112.512 28.152 111.972 28.728C110.748 30.024 109.704 30.384 108.66 29.7C108.084 29.304 107.796 28.692 107.688 28.044C106.5 29.52 105.024 30.78 103.944 30.06C102.54 29.16 103.188 27.036 104.196 25.2ZM134.613 38.304C134.757 38.16 135.117 38.304 135.405 38.628C135.621 38.88 135.729 39.168 135.693 39.348C139.365 36.288 145.485 30.24 151.821 23.796C142.605 24.228 133.461 24.156 131.301 22.248C130.401 21.456 130.185 20.556 130.581 19.62C130.941 18.684 131.913 17.64 133.281 16.524C134.685 15.408 136.485 14.256 138.537 13.212C146.493 9.072 158.337 5.976 164.961 10.332C170.541 4.572 174.717 0.287998 175.185 0.251999C176.661 0.107999 177.237 1.08 176.337 4.392C175.653 6.804 174.177 10.836 171.477 17.388C170.973 18.648 170.433 19.872 169.893 21.024C171.441 20.88 172.341 20.772 172.341 20.772C172.593 20.736 172.953 20.988 173.169 21.348C173.421 21.672 173.385 21.996 173.169 22.032C173.133 22.032 171.801 22.176 169.605 22.392C169.317 24.192 168.777 25.992 168.093 27.72C166.653 31.428 164.601 34.812 162.981 37.08C161.793 38.736 160.821 39.78 160.461 39.852C159.885 39.996 159.489 39.672 159.273 38.916C159.129 38.34 160.101 36.576 161.649 33.804C163.233 30.996 165.393 27.144 167.553 22.608C163.989 22.932 159.129 23.364 154.125 23.652C144.837 33.12 135.657 42.12 133.569 42.66C132.885 42.84 132.381 42.516 132.165 41.652C131.913 40.68 134.577 38.304 134.613 38.304ZM153.081 22.5C156.465 19.08 159.849 15.588 162.909 12.42L164.349 10.944C158.085 7.416 147.069 10.476 139.509 14.4C137.457 15.444 135.693 16.596 134.325 17.676C132.993 18.756 132.057 19.764 131.697 20.628C131.517 21.096 131.481 21.384 131.589 21.492C133.605 23.256 143.541 23.076 153.081 22.5ZM163.953 13.572C161.289 16.308 158.373 19.332 155.421 22.32C160.389 21.996 165.033 21.528 168.201 21.204L168.561 20.448C168.705 18.9 168.669 17.388 168.309 15.984C167.877 14.364 167.049 12.96 165.645 11.808L163.953 13.572ZM175.977 1.512C175.689 1.548 171.657 5.652 166.185 11.268C167.913 12.744 168.921 14.544 169.425 16.488C169.569 16.92 169.641 17.388 169.713 17.856C169.929 17.388 170.145 16.884 170.325 16.38C173.025 9.864 174.501 5.832 175.149 3.456C175.581 2.016 176.193 1.476 175.977 1.512ZM165.969 29.016C165.069 30.744 164.205 32.292 163.449 33.66C164.313 32.292 165.177 30.708 165.969 29.016ZM184.698 25.02C184.77 24.912 184.914 24.696 185.202 24.912C185.49 25.092 185.67 25.38 185.598 25.488C184.698 27.036 177.426 32.904 175.338 33.948C174.042 34.632 171.882 35.28 170.982 33.84C168.858 30.852 182.718 11.088 183.042 11.016C184.194 9.36 185.706 8.244 186.822 7.92C187.218 7.812 187.614 7.776 187.974 7.92C188.586 8.1 189.018 8.496 189.198 9.072C189.342 9.612 189.198 10.476 188.55 11.7C186.246 16.308 176.634 23.616 176.598 23.652C176.562 23.652 176.526 23.688 176.454 23.652C173.826 28.224 171.954 32.364 172.458 33.444C172.782 33.912 174.33 33.336 174.69 33.156C176.742 32.076 183.798 26.532 184.698 25.02ZM184.05 11.772C184.05 11.772 181.134 16.02 178.218 20.772C181.206 18.288 185.994 14.04 187.542 10.98C188.082 9.9 188.262 9.144 188.154 8.676C188.046 8.676 187.866 8.712 187.686 8.748C186.642 9.072 185.202 10.152 184.05 11.772ZM189.894 26.388C189.858 26.568 189.642 26.604 189.39 26.46L189.354 26.532C188.058 27.648 186.906 28.548 186.006 29.124C184.782 29.88 182.73 30.06 182.838 28.008C182.874 27.468 183.126 26.784 183.522 26.1C184.242 24.912 185.79 22.932 187.302 23.004C188.706 22.968 189.138 23.688 189.498 24.228C190.83 22.968 192.198 21.492 193.494 19.944C196.446 16.416 198.462 13.5 199.434 11.988L200.19 10.836C200.298 10.656 200.622 10.728 200.946 11.052C201.234 11.34 201.414 11.7 201.306 11.916C201.306 11.916 201.018 12.384 200.442 13.248C196.914 18.792 183.558 39.852 184.062 41.04C184.206 41.4 184.062 41.58 183.774 41.508C183.486 41.436 183.126 41.112 183.018 40.752C182.586 39.744 187.374 31.536 191.982 23.94C191.298 24.66 190.614 25.344 189.93 25.956C189.93 26.208 189.894 26.352 189.894 26.388ZM188.706 24.984C188.634 24.732 188.454 24.444 187.986 24.444C186.69 24.372 185.25 26.136 184.638 27.144C184.35 27.648 184.134 28.116 184.062 28.476C184.278 28.368 184.602 28.188 184.998 27.936C185.898 27.396 187.05 26.496 188.31 25.38L188.706 24.984ZM197.113 24.66C197.617 24.516 198.157 24.3 198.733 24.048C199.489 23.652 200.137 22.896 200.533 22.212C200.605 22.068 200.641 21.96 200.713 21.816C200.317 21.996 199.849 22.284 199.309 22.68C198.589 23.22 197.761 23.904 197.113 24.66ZM199.669 25.236C197.977 26.1 196.069 26.316 195.961 26.316C193.513 31.572 203.233 27.108 204.349 25.092C204.457 24.876 204.817 24.624 205.141 24.912C205.429 25.2 205.429 25.344 205.321 25.56C204.313 27.324 198.697 31.212 196.213 29.808C194.989 29.124 194.233 27.684 194.521 26.28C194.701 25.38 195.241 24.444 195.961 23.616C196.681 22.824 197.509 22.068 198.301 21.492C199.345 20.772 200.317 20.34 200.713 20.412C201.037 20.484 201.325 20.664 201.577 20.952C201.937 21.348 202.081 21.816 202.009 22.248C201.973 22.572 201.829 22.896 201.649 23.256C201.253 24.012 200.533 24.804 199.669 25.236ZM206.625 21.06C206.733 20.88 207.093 20.988 207.381 21.276C207.705 21.564 207.849 21.96 207.741 22.14L206.409 24.264C207.669 23.652 209.397 23.076 210.117 23.976C210.441 24.336 210.333 25.164 210.801 25.2C211.485 25.236 212.493 25.092 213.465 24.804C213.681 24.732 213.897 24.552 214.113 24.876C214.365 25.236 214.221 25.344 214.005 25.38C212.961 25.704 211.233 26.064 210.477 25.992C209.541 25.92 209.253 25.668 208.461 24.732C207.921 24.084 204.717 26.928 204.717 26.928C204.645 26.964 202.773 30.132 202.593 30.456C202.485 30.636 202.125 30.528 201.837 30.24C201.513 29.952 201.369 29.556 201.477 29.376L206.625 21.06Z" fill="#F050F8"/>
<path d="M53.94 57.304V61H51.882V50.948H58.168C60.464 50.948 61.976 52.04 61.976 54.126C61.976 56.198 60.464 57.304 58.168 57.304H53.94ZM53.94 55.554H58.056C59.246 55.554 59.946 55.022 59.946 54.126C59.946 53.216 59.246 52.698 58.056 52.698H53.94V55.554ZM65.1891 61.154C63.4251 61.154 62.0951 60.356 62.0951 58.872C62.0951 57.514 63.2571 56.758 65.0211 56.576L68.0871 56.254V56.198C68.0871 55.582 67.5411 55.078 66.2531 55.078C65.1751 55.078 64.2931 55.554 64.0411 56.198L62.3471 55.624C62.8091 54.336 64.4331 53.496 66.3231 53.496C68.6331 53.496 69.9771 54.434 69.9771 56.226V59.124C69.9771 59.53 70.1591 59.712 70.9991 59.53V61C69.3891 61.322 68.5911 60.804 68.2831 60.09C67.6111 60.72 66.5051 61.154 65.1891 61.154ZM68.0871 58.158V57.654L65.3151 57.962C64.4471 58.06 63.9991 58.27 63.9991 58.816C63.9991 59.376 64.5451 59.656 65.4551 59.656C66.6591 59.656 68.0871 59.138 68.0871 58.158ZM75.8588 61.518C75.1028 63.086 74.1928 63.618 72.6808 63.618C72.1068 63.618 71.3927 63.464 71.0848 63.31L71.4348 61.714C71.7708 61.882 72.1068 61.994 72.5128 61.994C73.1008 61.994 73.6888 61.84 73.9968 61.042L74.0667 60.818L70.4407 53.636H72.6248L75.1448 58.886L77.6088 53.636H79.7088L75.8588 61.518ZM80.4396 61V53.636H82.3996V54.546C82.9316 53.944 83.7436 53.496 84.9476 53.496C86.0816 53.496 87.0196 53.986 87.5096 54.812C88.1956 54.042 89.1476 53.496 90.4776 53.496C92.6476 53.496 93.8096 54.854 93.8096 56.954V61H91.8496V57.332C91.8496 56.086 91.3036 55.246 90.0576 55.246C88.7556 55.246 88.1116 56.058 88.1116 57.36V61H86.1516V57.332C86.1516 56.086 85.6056 55.246 84.3596 55.246C83.0436 55.246 82.3996 56.058 82.3996 57.36V61H80.4396ZM99.1799 59.558C100.272 59.558 101.112 59.026 101.448 58.214L103.114 58.928C102.624 60.146 101.126 61.154 99.1799 61.154C96.6459 61.154 94.8259 59.6 94.8259 57.318C94.8259 55.148 96.6179 53.496 99.1659 53.496C101.714 53.496 103.24 55.148 103.24 57.248V57.864H96.7159C96.9539 58.928 97.9199 59.558 99.1799 59.558ZM99.0959 55.064C98.0179 55.064 97.0939 55.568 96.7859 56.534H101.308C101.196 55.848 100.37 55.064 99.0959 55.064ZM104.324 61V53.636H106.284V54.56C106.816 53.958 107.74 53.496 108.972 53.496C110.96 53.496 112.178 54.854 112.178 56.898V61H110.218V57.36C110.218 56.1 109.588 55.26 108.328 55.26C107.012 55.26 106.284 56.072 106.284 57.388V61H104.324ZM114.506 58.536V55.274H112.742V53.636H114.506V51.536H116.438V53.636H119.574V55.274H116.438V58.214C116.438 59.082 116.914 59.376 117.936 59.376C118.538 59.376 119.056 59.236 119.546 59.068L119.882 60.678C119.294 60.902 118.384 61.098 117.502 61.098C115.878 61.098 114.506 60.426 114.506 58.536ZM128.8 50.948H131.11L136.178 61H133.952L132.79 58.662H127.106L125.93 61H123.732L128.8 50.948ZM129.948 52.978L127.974 56.912H131.908L129.948 52.978ZM142.727 60.118C142.223 60.678 141.257 61.154 139.969 61.154C137.449 61.154 135.965 59.418 135.965 57.318C135.965 55.232 137.449 53.496 139.969 53.496C141.257 53.496 142.223 53.972 142.727 54.532V50.948H144.687V61H142.727V60.118ZM142.811 57.276C142.811 56.016 141.719 55.092 140.319 55.092C138.989 55.092 137.841 55.89 137.841 57.318C137.841 58.76 138.989 59.558 140.319 59.558C141.719 59.558 142.811 58.62 142.811 57.374V57.276ZM151.059 61H149.043L145.417 53.636H147.601L150.093 58.886L152.585 53.636H154.685L151.059 61ZM155.388 52.768V50.948H157.39V52.768H155.388ZM157.376 53.636V61H155.416V53.636H157.376ZM158.063 59.614L159.183 58.326C160.009 59.222 161.115 59.628 162.389 59.628C163.467 59.628 164.181 59.39 164.181 58.844C164.181 58.284 163.509 58.284 161.815 58.074C159.967 57.836 158.497 57.514 158.497 55.946C158.497 54.49 159.897 53.496 162.137 53.496C163.887 53.496 165.259 54.098 165.945 54.882L164.825 56.072C164.209 55.4 163.229 55.008 162.039 55.008C160.947 55.008 160.415 55.302 160.415 55.736C160.415 56.198 160.933 56.254 162.529 56.45C164.461 56.674 166.127 56.954 166.127 58.648C166.127 60.328 164.405 61.154 162.305 61.154C160.527 61.154 158.903 60.594 158.063 59.614ZM171.011 53.496C173.405 53.496 175.295 55.022 175.295 57.318C175.295 59.628 173.405 61.154 171.011 61.154C168.603 61.154 166.699 59.628 166.699 57.318C166.699 55.022 168.603 53.496 171.011 53.496ZM171.011 59.516C172.327 59.516 173.405 58.718 173.405 57.318C173.405 55.932 172.327 55.134 171.011 55.134C169.667 55.134 168.603 55.932 168.603 57.318C168.603 58.718 169.667 59.516 171.011 59.516ZM181.933 53.692V55.624C181.597 55.54 181.443 55.512 181.051 55.512C179.427 55.512 178.349 56.17 178.349 57.864V61H176.389V53.636H178.349V54.938C178.979 53.972 179.917 53.594 181.121 53.594C181.457 53.594 181.723 53.636 181.933 53.692Z" fill="#252525"/>
<defs>
<linearGradient id="paint0_linear_817_1788" x1="127" y1="74" x2="124" y2="35.5" gradientUnits="userSpaceOnUse">
<stop stop-color="#F050F8"/>
<stop offset="1" stop-color="#F050F8" stop-opacity="0"/>
</linearGradient>
</defs>
</svg>
