<svg width="16" height="16" viewBox="0 0 16 16" fill="none" xmlns="http://www.w3.org/2000/svg">
<rect width="16" height="16" rx="8" fill="#F050F8"/>
<g clip-path="url(#clip0_817_1824)">
<path fill-rule="evenodd" clip-rule="evenodd" d="M6.88526 4.15772C6.11212 4.38294 5.42481 4.83594 4.913 5.45764C4.40118 6.07934 4.08863 6.84087 4.01611 7.64287H5.84468C5.95127 6.42244 6.30512 5.23646 6.88468 4.15715M5.84468 8.35715H4.01611C4.08848 9.15918 4.4009 9.92078 4.91261 10.5426C5.42432 11.1644 6.11157 11.6175 6.88468 11.8429C6.30512 10.7636 5.95127 9.57758 5.84468 8.35715ZM7.80126 11.9954C7.10844 10.8966 6.68368 9.65035 6.56126 8.35715H9.4384C9.31597 9.65035 8.89121 10.8966 8.1984 11.9954C8.0661 12.002 7.93355 12.002 7.80126 11.9954ZM9.11554 11.8423C9.88857 11.617 10.5758 11.1639 11.0875 10.5422C11.5992 9.92055 11.9116 9.15908 11.9841 8.35715H10.1555C10.049 9.57758 9.6951 10.7636 9.11554 11.8429M10.1555 7.64344H11.9841C11.9117 6.84141 11.5993 6.07981 11.0876 5.45801C10.5759 4.8362 9.88866 4.38307 9.11554 4.15772C9.6951 5.23704 10.049 6.42301 10.1555 7.64344ZM7.80126 4.00458C7.93374 3.99799 8.06648 3.99799 8.19897 4.00458C8.89158 5.10343 9.31614 6.34972 9.4384 7.64287H6.56183C6.68583 6.34172 7.11154 5.09429 7.80126 4.00458Z" fill="white"/>
</g>
<defs>
<clipPath id="clip0_817_1824">
<rect width="8" height="8" fill="white" transform="translate(4 4)"/>
</clipPath>
</defs>
</svg>
