<svg width="16" height="16" viewBox="0 0 16 16" fill="none" xmlns="http://www.w3.org/2000/svg">
<rect width="16" height="16" rx="8" fill="#F050F8"/>
<path fill-rule="evenodd" clip-rule="evenodd" d="M8 5C7.55684 5 7.04 5.0107 6.53619 5.02522L6.51572 5.02599C6.00298 5.04089 5.58921 5.05274 5.26326 5.10815C4.92353 5.16585 4.64149 5.27629 4.416 5.51436C4.18977 5.7532 4.09116 6.0486 4.04465 6.40208C4 6.74218 4 7.17324 4 7.709V8.29138C4 8.82638 4 9.25744 4.04465 9.59792C4.09079 9.9514 4.18977 10.2468 4.416 10.4856C4.64149 10.7241 4.92353 10.8342 5.26326 10.8919C5.58921 10.9473 6.00298 10.9591 6.51572 10.974L6.53619 10.9748C7.04037 10.9893 7.55684 11 8 11C8.44316 11 8.96 10.9893 9.46381 10.9748L9.48428 10.974C9.99702 10.9591 10.4108 10.9473 10.7367 10.8919C11.0765 10.8342 11.3585 10.7237 11.584 10.4856C11.8102 10.2468 11.9092 9.9514 11.9553 9.59792C12 9.25782 12 8.82676 12 8.291V7.70862C12 7.17324 12 6.74218 11.9553 6.40208C11.9092 6.0486 11.8102 5.7532 11.584 5.51436C11.3585 5.27591 11.0765 5.16585 10.7367 5.10815C10.4108 5.05274 9.99702 5.04089 9.48391 5.02599L9.46381 5.02522C8.97601 5.01002 8.48803 5.00161 8 5ZM7.58028 9.01287C7.53784 9.03776 7.48979 9.05077 7.44092 9.0506C7.39205 9.05043 7.34408 9.03709 7.30181 9.0119C7.25954 8.98671 7.22445 8.95056 7.20005 8.90708C7.17566 8.86359 7.16281 8.81428 7.16279 8.76409V7.23553C7.16281 7.18534 7.17566 7.13603 7.20005 7.09254C7.22445 7.04905 7.25954 7.01291 7.30181 6.98772C7.34408 6.96253 7.39205 6.94918 7.44092 6.94901C7.48979 6.94884 7.53784 6.96186 7.58028 6.98675L8.8826 7.75103C8.92529 7.77611 8.96076 7.81233 8.98543 7.85601C9.0101 7.8997 9.0231 7.94931 9.0231 7.99981C9.0231 8.05031 9.0101 8.09992 8.98543 8.1436C8.96076 8.18729 8.92529 8.22351 8.8826 8.24858L7.58028 9.01287Z" fill="white"/>
</svg>
