<svg width="31" height="22" viewBox="0 0 31 22" fill="none" xmlns="http://www.w3.org/2000/svg">
<g clip-path="url(#clip0_817_9475)">
<path fill-rule="evenodd" clip-rule="evenodd" d="M7.82283 3.58596L0.333496 11C1.8315 12.483 3.54274 13.7328 5.40848 14.7105C5.92418 16.0647 6.73252 17.3347 7.8335 18.4246C11.9757 22.5251 18.6914 22.5251 22.8335 18.4246C23.9345 17.3347 24.7428 16.0647 25.2585 14.7105C27.1242 13.7328 28.8355 12.483 30.3335 11L22.8502 3.59199C22.8447 3.58645 22.8391 3.58091 22.8335 3.57537C18.6914 -0.525125 11.9757 -0.525125 7.8335 3.57537C7.82995 3.57891 7.82639 3.58243 7.82283 3.58596ZM22.1169 16.0482C19.9344 16.7773 17.6433 17.1507 15.3335 17.1507C13.0237 17.1507 10.7327 16.7773 8.5502 16.0482C8.78667 16.3587 9.04775 16.6568 9.3335 16.9397C12.6472 20.2201 18.0198 20.2201 21.3335 16.9397C21.6192 16.6568 21.8804 16.3587 22.1169 16.0482ZM9.48732 4.9118C10.05 5.27983 10.6484 5.59476 11.2745 5.85152C12.5613 6.37919 13.9406 6.65078 15.3335 6.65078C16.7264 6.65078 18.1056 6.37919 19.3925 5.85152C20.0186 5.59476 20.6169 5.27982 21.1797 4.91178C17.9073 1.8294 12.7596 1.8294 9.48732 4.9118Z" fill="#3B4158"/>
</g>
<defs>
<clipPath id="clip0_817_9475">
<rect width="30" height="21" fill="white" transform="translate(0.333496 0.5)"/>
</clipPath>
</defs>
</svg>
