<svg width="31" height="30" viewBox="0 0 31 30" fill="none" xmlns="http://www.w3.org/2000/svg">
<g clip-path="url(#clip0_817_9410)">
<path fill-rule="evenodd" clip-rule="evenodd" d="M10.9525 0.377686C9.26015 0.377686 7.63723 1.03354 6.44061 2.20097L0.666504 7.83421V10.4127C0.666504 12.2345 1.46858 13.8734 2.74701 15.0118C1.46858 16.1502 0.666504 17.7892 0.666504 19.6109V22.1894L6.44061 27.8227C7.63723 28.9901 9.26015 29.646 10.9525 29.646C12.8197 29.646 14.4997 28.8635 15.6665 27.6162C16.8334 28.8635 18.5133 29.646 20.3806 29.646C22.0729 29.646 23.6958 28.9901 24.8924 27.8227L30.6665 22.1894V19.6109C30.6665 17.7892 29.8645 16.1502 28.586 15.0118C29.8645 13.8734 30.6665 12.2345 30.6665 10.4127V7.83421L24.8924 2.20097C23.6958 1.03354 22.0729 0.377686 20.3806 0.377686C18.5133 0.377686 16.8334 1.1602 15.6665 2.40745C14.4997 1.1602 12.8197 0.377686 10.9525 0.377686ZM19.9856 15.0118C19.9137 14.9478 19.8431 14.882 19.774 14.8146L15.6665 10.8073L11.5591 14.8146C11.4899 14.882 11.4193 14.9478 11.3474 15.0118C11.4193 15.0758 11.4899 15.1416 11.5591 15.2091L15.6665 19.2164L19.774 15.2091C19.8431 15.1416 19.9137 15.0758 19.9856 15.0118ZM17.3332 22.1894V23.4209C17.3332 25.0628 18.6976 26.394 20.3806 26.394C21.1888 26.394 21.9639 26.0807 22.5354 25.5232L27.3332 20.8424V19.6109C27.3332 17.9689 25.9688 16.6378 24.2858 16.6378C23.4776 16.6378 22.7025 16.9511 22.131 17.5086L17.3332 22.1894ZM13.9999 22.1894L9.20203 17.5086C8.63053 16.9511 7.85543 16.6378 7.04722 16.6378C5.3642 16.6378 3.99983 17.9689 3.99983 19.6109V20.8424L8.79763 25.5232C9.36913 26.0807 10.1443 26.394 10.9525 26.394C12.6355 26.394 13.9999 25.0628 13.9999 23.4209V22.1894ZM13.9999 6.60277V7.83421L9.20203 12.515C8.63053 13.0726 7.85543 13.3858 7.04722 13.3858C5.3642 13.3858 3.99983 12.0547 3.99983 10.4127V9.18129L8.79763 4.5005C9.36913 3.94295 10.1443 3.62972 10.9525 3.62972C12.6355 3.62972 13.9999 4.9608 13.9999 6.60277ZM22.131 12.515L17.3332 7.83421V6.60277C17.3332 4.9608 18.6976 3.62972 20.3806 3.62972C21.1888 3.62972 21.9639 3.94295 22.5354 4.5005L27.3332 9.18129V10.4127C27.3332 12.0547 25.9688 13.3858 24.2858 13.3858C23.4776 13.3858 22.7025 13.0726 22.131 12.515Z" fill="#FF630B"/>
</g>
<defs>
<clipPath id="clip0_817_9410">
<rect width="30" height="30" fill="white" transform="translate(0.666504)"/>
</clipPath>
</defs>
</svg>
