<svg width="30" height="30" viewBox="0 0 30 30" fill="none" xmlns="http://www.w3.org/2000/svg">
<g clip-path="url(#clip0_817_9341)">
<path d="M29.9585 16.1248H24.6C19.9193 16.1248 16.125 19.9192 16.125 24.5998V29.9582C23.5124 29.4104 29.4107 23.5122 29.9585 16.1248Z" fill="#775732"/>
<path d="M13.8755 29.9582V24.5998C13.8755 19.9192 10.0811 16.1248 5.40044 16.1248H0.0419922C0.589743 23.5122 6.48801 29.4104 13.8755 29.9582Z" fill="#775732"/>
<path d="M29.9585 13.875C29.4107 6.48752 23.5124 0.589255 16.125 0.0415039V5.39995C16.125 10.0806 19.9193 13.875 24.6 13.875H29.9585Z" fill="#775732"/>
<path d="M13.8755 0.0415039C6.48801 0.589255 0.589743 6.48752 0.0419922 13.875H5.40044C10.0811 13.875 13.8755 10.0806 13.8755 5.39995V0.0415039Z" fill="#775732"/>
<path d="M10.187 14.9997C12.2664 13.9608 13.961 12.2661 14.9999 10.1868C16.0389 12.2661 17.7334 13.9608 19.8129 14.9997C17.7334 16.0386 16.0389 17.7333 14.9999 19.8126C13.961 17.7333 12.2664 16.0386 10.187 14.9997Z" fill="#CA9352"/>
</g>
<defs>
<clipPath id="clip0_817_9341">
<rect width="30" height="30" fill="white"/>
</clipPath>
</defs>
</svg>
